<svg id="visual" viewBox="0 0 900 600" width="900" height="600" xmlns="http://www.w3.org/2000/svg" xmlns:xlink="http://www.w3.org/1999/xlink" version="1.1"><path d="M0 452L15 455.2C30 458.3 60 464.7 90 466.5C120 468.3 150 465.7 180 459.5C210 453.3 240 443.7 270 448C300 452.3 330 470.7 360 471.7C390 472.7 420 456.3 450 454.2C480 452 510 464 540 473.8C570 483.7 600 491.3 630 490.3C660 489.3 690 479.7 720 468.8C750 458 780 446 810 440.7C840 435.3 870 436.7 885 437.3L900 438L900 601L885 601C870 601 840 601 810 601C780 601 750 601 720 601C690 601 660 601 630 601C600 601 570 601 540 601C510 601 480 601 450 601C420 601 390 601 360 601C330 601 300 601 270 601C240 601 210 601 180 601C150 601 120 601 90 601C60 601 30 601 15 601L0 601Z" fill="#303036"></path><path d="M0 465L15 463.7C30 462.3 60 459.7 90 467.8C120 476 150 495 180 499.3C210 503.7 240 493.3 270 487C300 480.7 330 478.3 360 480.5C390 482.7 420 489.3 450 495.5C480 501.7 510 507.3 540 509.5C570 511.7 600 510.3 630 501.3C660 492.3 690 475.7 720 473.2C750 470.7 780 482.3 810 487.3C840 492.3 870 490.7 885 489.8L900 489L900 601L885 601C870 601 840 601 810 601C780 601 750 601 720 601C690 601 660 601 630 601C600 601 570 601 540 601C510 601 480 601 450 601C420 601 390 601 360 601C330 601 300 601 270 601C240 601 210 601 180 601C150 601 120 601 90 601C60 601 30 601 15 601L0 601Z" fill="#2e2d41"></path><path d="M0 524L15 524.7C30 525.3 60 526.7 90 528.5C120 530.3 150 532.7 180 531.8C210 531 240 527 270 522.2C300 517.3 330 511.7 360 507.8C390 504 420 502 450 503.8C480 505.7 510 511.3 540 508C570 504.7 600 492.3 630 487.2C660 482 690 484 720 491.5C750 499 780 512 810 515.8C840 519.7 870 514.3 885 511.7L900 509L900 601L885 601C870 601 840 601 810 601C780 601 750 601 720 601C690 601 660 601 630 601C600 601 570 601 540 601C510 601 480 601 450 601C420 601 390 601 360 601C330 601 300 601 270 601C240 601 210 601 180 601C150 601 120 601 90 601C60 601 30 601 15 601L0 601Z" fill="#2f294a"></path><path d="M0 508L15 511.3C30 514.7 60 521.3 90 524.3C120 527.3 150 526.7 180 526.5C210 526.3 240 526.7 270 523.7C300 520.7 330 514.3 360 517.2C390 520 420 532 450 537.3C480 542.7 510 541.3 540 536.8C570 532.3 600 524.7 630 527C660 529.3 690 541.7 720 546.8C750 552 780 550 810 542C840 534 870 520 885 513L900 506L900 601L885 601C870 601 840 601 810 601C780 601 750 601 720 601C690 601 660 601 630 601C600 601 570 601 540 601C510 601 480 601 450 601C420 601 390 601 360 601C330 601 300 601 270 601C240 601 210 601 180 601C150 601 120 601 90 601C60 601 30 601 15 601L0 601Z" fill="#322352"></path><path d="M0 537L15 542.8C30 548.7 60 560.3 90 561.8C120 563.3 150 554.7 180 547.8C210 541 240 536 270 540.3C300 544.7 330 558.3 360 563C390 567.7 420 563.3 450 560.5C480 557.7 510 556.3 540 557.5C570 558.7 600 562.3 630 557.8C660 553.3 690 540.7 720 539.8C750 539 780 550 810 550.2C840 550.3 870 539.7 885 534.3L900 529L900 601L885 601C870 601 840 601 810 601C780 601 750 601 720 601C690 601 660 601 630 601C600 601 570 601 540 601C510 601 480 601 450 601C420 601 390 601 360 601C330 601 300 601 270 601C240 601 210 601 180 601C150 601 120 601 90 601C60 601 30 601 15 601L0 601Z" fill="#371a58"></path><path d="M0 574L15 574.2C30 574.3 60 574.7 90 573C120 571.3 150 567.7 180 568.5C210 569.3 240 574.7 270 579C300 583.3 330 586.7 360 588.5C390 590.3 420 590.7 450 590.7C480 590.7 510 590.3 540 589.8C570 589.3 600 588.7 630 587.5C660 586.3 690 584.7 720 582.5C750 580.3 780 577.7 810 573C840 568.3 870 561.7 885 558.3L900 555L900 601L885 601C870 601 840 601 810 601C780 601 750 601 720 601C690 601 660 601 630 601C600 601 570 601 540 601C510 601 480 601 450 601C420 601 390 601 360 601C330 601 300 601 270 601C240 601 210 601 180 601C150 601 120 601 90 601C60 601 30 601 15 601L0 601Z" fill="#3f0c5c"></path></svg>